<mxfile host="app.diagrams.net" agent="Mozilla/5.0 (Windows NT 10.0; Win64; x64) AppleWebKit/537.36 (KHTML, like Gecko) Chrome/141.0.0.0 Safari/537.36" version="28.2.7">
  <diagram name="PÃ¡gina-1" id="1hOGnbgf42rPfIR_LaEN">
    <mxGraphModel dx="1426" dy="743" grid="1" gridSize="10" guides="1" tooltips="1" connect="1" arrows="1" fold="1" page="1" pageScale="1" pageWidth="1169" pageHeight="827" math="0" shadow="0">
      <root>
        <mxCell id="0" />
        <mxCell id="1" parent="0" />
        <mxCell id="5XdrCpdb1dzaPWZnTIDK-1" value="&lt;h1 style=&quot;margin-top: 0px;&quot;&gt;book-publisher&lt;/h1&gt;" style="text;html=1;whiteSpace=wrap;overflow=hidden;rounded=0;align=center;fontColor=#8E8E8E;fontFamily=Times New Roman;" parent="1" vertex="1">
          <mxGeometry x="460" y="60" width="230" height="40" as="geometry" />
        </mxCell>
        <mxCell id="5XdrCpdb1dzaPWZnTIDK-2" value="books" style="swimlane;fontStyle=0;childLayout=stackLayout;horizontal=1;startSize=30;horizontalStack=0;resizeParent=1;resizeParentMax=0;resizeLast=0;collapsible=1;marginBottom=0;whiteSpace=wrap;html=1;fontFamily=Times New Roman;fillColor=#f5f5f5;fontColor=#333333;strokeColor=#464646;strokeWidth=1;" parent="1" vertex="1">
          <mxGeometry x="175" y="160" width="180" height="210" as="geometry" />
        </mxCell>
        <mxCell id="5XdrCpdb1dzaPWZnTIDK-3" value="id INT" style="text;strokeColor=default;fillColor=#FFFFFF;align=left;verticalAlign=middle;spacingLeft=4;spacingRight=4;overflow=hidden;points=[[0,0.5],[1,0.5]];portConstraint=eastwest;rotatable=0;whiteSpace=wrap;html=1;fontFamily=Times New Roman;labelBackgroundColor=#FFFFFF;strokeWidth=1;" parent="5XdrCpdb1dzaPWZnTIDK-2" vertex="1">
          <mxGeometry y="30" width="180" height="30" as="geometry" />
        </mxCell>
        <mxCell id="5XdrCpdb1dzaPWZnTIDK-4" value="book_title VARCHAR" style="text;strokeColor=default;fillColor=#FFFFFF;align=left;verticalAlign=middle;spacingLeft=4;spacingRight=4;overflow=hidden;points=[[0,0.5],[1,0.5]];portConstraint=eastwest;rotatable=0;whiteSpace=wrap;html=1;fontFamily=Times New Roman;labelBackgroundColor=#FFFFFF;strokeWidth=1;" parent="5XdrCpdb1dzaPWZnTIDK-2" vertex="1">
          <mxGeometry y="60" width="180" height="30" as="geometry" />
        </mxCell>
        <mxCell id="5XdrCpdb1dzaPWZnTIDK-5" value="publication_date DATE" style="text;strokeColor=default;fillColor=#FFFFFF;align=left;verticalAlign=middle;spacingLeft=4;spacingRight=4;overflow=hidden;points=[[0,0.5],[1,0.5]];portConstraint=eastwest;rotatable=0;whiteSpace=wrap;html=1;fontFamily=Times New Roman;labelBackgroundColor=#FFFFFF;strokeWidth=1;" parent="5XdrCpdb1dzaPWZnTIDK-2" vertex="1">
          <mxGeometry y="90" width="180" height="30" as="geometry" />
        </mxCell>
        <mxCell id="dmgDD_BHBkMEmIld9EDz-1" value="ISBN VARCHAR" style="text;strokeColor=default;fillColor=#FFFFFF;align=left;verticalAlign=middle;spacingLeft=4;spacingRight=4;overflow=hidden;points=[[0,0.5],[1,0.5]];portConstraint=eastwest;rotatable=0;whiteSpace=wrap;html=1;fontFamily=Times New Roman;labelBackgroundColor=#FFFFFF;strokeWidth=1;" parent="5XdrCpdb1dzaPWZnTIDK-2" vertex="1">
          <mxGeometry y="120" width="180" height="30" as="geometry" />
        </mxCell>
        <mxCell id="dmgDD_BHBkMEmIld9EDz-2" value="book_summary TEXT" style="text;strokeColor=default;fillColor=#FFFFFF;align=left;verticalAlign=middle;spacingLeft=4;spacingRight=4;overflow=hidden;points=[[0,0.5],[1,0.5]];portConstraint=eastwest;rotatable=0;whiteSpace=wrap;html=1;fontFamily=Times New Roman;labelBackgroundColor=#FFFFFF;strokeWidth=1;" parent="5XdrCpdb1dzaPWZnTIDK-2" vertex="1">
          <mxGeometry y="150" width="180" height="30" as="geometry" />
        </mxCell>
        <mxCell id="dmgDD_BHBkMEmIld9EDz-3" value="genre_ID INT" style="text;strokeColor=default;fillColor=#FFFFFF;align=left;verticalAlign=middle;spacingLeft=4;spacingRight=4;overflow=hidden;points=[[0,0.5],[1,0.5]];portConstraint=eastwest;rotatable=0;whiteSpace=wrap;html=1;fontFamily=Times New Roman;labelBackgroundColor=#FFFFFF;strokeWidth=1;" parent="5XdrCpdb1dzaPWZnTIDK-2" vertex="1">
          <mxGeometry y="180" width="180" height="30" as="geometry" />
        </mxCell>
        <mxCell id="dmgDD_BHBkMEmIld9EDz-5" value="genres" style="swimlane;fontStyle=0;childLayout=stackLayout;horizontal=1;startSize=30;horizontalStack=0;resizeParent=1;resizeParentMax=0;resizeLast=0;collapsible=1;marginBottom=0;whiteSpace=wrap;html=1;fontFamily=Times New Roman;fillColor=#f5f5f5;fontColor=#333333;strokeColor=#464646;strokeWidth=1;" parent="1" vertex="1">
          <mxGeometry x="175" y="460" width="180" height="90" as="geometry" />
        </mxCell>
        <mxCell id="dmgDD_BHBkMEmIld9EDz-6" value="id INT" style="text;strokeColor=default;fillColor=#FFFFFF;align=left;verticalAlign=middle;spacingLeft=4;spacingRight=4;overflow=hidden;points=[[0,0.5],[1,0.5]];portConstraint=eastwest;rotatable=0;whiteSpace=wrap;html=1;fontFamily=Times New Roman;labelBackgroundColor=#FFFFFF;strokeWidth=1;" parent="dmgDD_BHBkMEmIld9EDz-5" vertex="1">
          <mxGeometry y="30" width="180" height="30" as="geometry" />
        </mxCell>
        <mxCell id="dmgDD_BHBkMEmIld9EDz-7" value="genre_title VARCHAR" style="text;strokeColor=default;fillColor=#FFFFFF;align=left;verticalAlign=middle;spacingLeft=4;spacingRight=4;overflow=hidden;points=[[0,0.5],[1,0.5]];portConstraint=eastwest;rotatable=0;whiteSpace=wrap;html=1;fontFamily=Times New Roman;labelBackgroundColor=#FFFFFF;strokeWidth=1;" parent="dmgDD_BHBkMEmIld9EDz-5" vertex="1">
          <mxGeometry y="60" width="180" height="30" as="geometry" />
        </mxCell>
        <mxCell id="dmgDD_BHBkMEmIld9EDz-12" value="authors" style="swimlane;fontStyle=0;childLayout=stackLayout;horizontal=1;startSize=30;horizontalStack=0;resizeParent=1;resizeParentMax=0;resizeLast=0;collapsible=1;marginBottom=0;whiteSpace=wrap;html=1;fontFamily=Times New Roman;fillColor=#f5f5f5;fontColor=#333333;strokeColor=#464646;strokeWidth=1;" parent="1" vertex="1">
          <mxGeometry x="485" y="350" width="180" height="150" as="geometry" />
        </mxCell>
        <mxCell id="dmgDD_BHBkMEmIld9EDz-13" value="id INT" style="text;strokeColor=default;fillColor=#FFFFFF;align=left;verticalAlign=middle;spacingLeft=4;spacingRight=4;overflow=hidden;points=[[0,0.5],[1,0.5]];portConstraint=eastwest;rotatable=0;whiteSpace=wrap;html=1;fontFamily=Times New Roman;labelBackgroundColor=#FFFFFF;strokeWidth=1;" parent="dmgDD_BHBkMEmIld9EDz-12" vertex="1">
          <mxGeometry y="30" width="180" height="30" as="geometry" />
        </mxCell>
        <mxCell id="dmgDD_BHBkMEmIld9EDz-14" value="author_name VARCHAR" style="text;strokeColor=default;fillColor=#FFFFFF;align=left;verticalAlign=middle;spacingLeft=4;spacingRight=4;overflow=hidden;points=[[0,0.5],[1,0.5]];portConstraint=eastwest;rotatable=0;whiteSpace=wrap;html=1;fontFamily=Times New Roman;labelBackgroundColor=#FFFFFF;strokeWidth=1;" parent="dmgDD_BHBkMEmIld9EDz-12" vertex="1">
          <mxGeometry y="60" width="180" height="30" as="geometry" />
        </mxCell>
        <mxCell id="dmgDD_BHBkMEmIld9EDz-15" value="biography TEXT" style="text;strokeColor=default;fillColor=#FFFFFF;align=left;verticalAlign=middle;spacingLeft=4;spacingRight=4;overflow=hidden;points=[[0,0.5],[1,0.5]];portConstraint=eastwest;rotatable=0;whiteSpace=wrap;html=1;fontFamily=Times New Roman;labelBackgroundColor=#FFFFFF;strokeWidth=1;" parent="dmgDD_BHBkMEmIld9EDz-12" vertex="1">
          <mxGeometry y="90" width="180" height="30" as="geometry" />
        </mxCell>
        <mxCell id="dmgDD_BHBkMEmIld9EDz-16" value="birthday DATE" style="text;strokeColor=default;fillColor=#FFFFFF;align=left;verticalAlign=middle;spacingLeft=4;spacingRight=4;overflow=hidden;points=[[0,0.5],[1,0.5]];portConstraint=eastwest;rotatable=0;whiteSpace=wrap;html=1;fontFamily=Times New Roman;labelBackgroundColor=#FFFFFF;strokeWidth=1;" parent="dmgDD_BHBkMEmIld9EDz-12" vertex="1">
          <mxGeometry y="120" width="180" height="30" as="geometry" />
        </mxCell>
        <mxCell id="dmgDD_BHBkMEmIld9EDz-19" value="books_authors" style="swimlane;fontStyle=0;childLayout=stackLayout;horizontal=1;startSize=30;horizontalStack=0;resizeParent=1;resizeParentMax=0;resizeLast=0;collapsible=1;marginBottom=0;whiteSpace=wrap;html=1;fontFamily=Times New Roman;fillColor=#f5f5f5;fontColor=#333333;strokeColor=#464646;strokeWidth=1;" parent="1" vertex="1">
          <mxGeometry x="485" y="180" width="180" height="90" as="geometry" />
        </mxCell>
        <mxCell id="dmgDD_BHBkMEmIld9EDz-21" value="author_id INT" style="text;strokeColor=default;fillColor=#FFFFFF;align=left;verticalAlign=middle;spacingLeft=4;spacingRight=4;overflow=hidden;points=[[0,0.5],[1,0.5]];portConstraint=eastwest;rotatable=0;whiteSpace=wrap;html=1;fontFamily=Times New Roman;labelBackgroundColor=#FFFFFF;strokeWidth=1;" parent="dmgDD_BHBkMEmIld9EDz-19" vertex="1">
          <mxGeometry y="30" width="180" height="30" as="geometry" />
        </mxCell>
        <mxCell id="dmgDD_BHBkMEmIld9EDz-22" value="book_id INT" style="text;strokeColor=default;fillColor=#FFFFFF;align=left;verticalAlign=middle;spacingLeft=4;spacingRight=4;overflow=hidden;points=[[0,0.5],[1,0.5]];portConstraint=eastwest;rotatable=0;whiteSpace=wrap;html=1;fontFamily=Times New Roman;labelBackgroundColor=#FFFFFF;strokeWidth=1;" parent="dmgDD_BHBkMEmIld9EDz-19" vertex="1">
          <mxGeometry y="60" width="180" height="30" as="geometry" />
        </mxCell>
        <mxCell id="dmgDD_BHBkMEmIld9EDz-24" value="readers" style="swimlane;fontStyle=0;childLayout=stackLayout;horizontal=1;startSize=30;horizontalStack=0;resizeParent=1;resizeParentMax=0;resizeLast=0;collapsible=1;marginBottom=0;whiteSpace=wrap;html=1;fontFamily=Times New Roman;fillColor=#f5f5f5;fontColor=#333333;strokeColor=#464646;strokeWidth=1;" parent="1" vertex="1">
          <mxGeometry x="795" y="160" width="180" height="210" as="geometry" />
        </mxCell>
        <mxCell id="dmgDD_BHBkMEmIld9EDz-25" value="id INT" style="text;strokeColor=default;fillColor=#FFFFFF;align=left;verticalAlign=middle;spacingLeft=4;spacingRight=4;overflow=hidden;points=[[0,0.5],[1,0.5]];portConstraint=eastwest;rotatable=0;whiteSpace=wrap;html=1;fontFamily=Times New Roman;labelBackgroundColor=#FFFFFF;strokeWidth=1;" parent="dmgDD_BHBkMEmIld9EDz-24" vertex="1">
          <mxGeometry y="30" width="180" height="30" as="geometry" />
        </mxCell>
        <mxCell id="dmgDD_BHBkMEmIld9EDz-26" value="reader_name VARCHAR" style="text;strokeColor=default;fillColor=#FFFFFF;align=left;verticalAlign=middle;spacingLeft=4;spacingRight=4;overflow=hidden;points=[[0,0.5],[1,0.5]];portConstraint=eastwest;rotatable=0;whiteSpace=wrap;html=1;fontFamily=Times New Roman;labelBackgroundColor=#FFFFFF;strokeWidth=1;" parent="dmgDD_BHBkMEmIld9EDz-24" vertex="1">
          <mxGeometry y="60" width="180" height="30" as="geometry" />
        </mxCell>
        <mxCell id="dmgDD_BHBkMEmIld9EDz-27" value="email VARCHAR" style="text;strokeColor=default;fillColor=#FFFFFF;align=left;verticalAlign=middle;spacingLeft=4;spacingRight=4;overflow=hidden;points=[[0,0.5],[1,0.5]];portConstraint=eastwest;rotatable=0;whiteSpace=wrap;html=1;fontFamily=Times New Roman;labelBackgroundColor=#FFFFFF;strokeWidth=1;" parent="dmgDD_BHBkMEmIld9EDz-24" vertex="1">
          <mxGeometry y="90" width="180" height="30" as="geometry" />
        </mxCell>
        <mxCell id="dmgDD_BHBkMEmIld9EDz-57" value="password VARCHAR" style="text;strokeColor=default;fillColor=#FFFFFF;align=left;verticalAlign=middle;spacingLeft=4;spacingRight=4;overflow=hidden;points=[[0,0.5],[1,0.5]];portConstraint=eastwest;rotatable=0;whiteSpace=wrap;html=1;fontFamily=Times New Roman;labelBackgroundColor=#FFFFFF;strokeWidth=1;" parent="dmgDD_BHBkMEmIld9EDz-24" vertex="1">
          <mxGeometry y="120" width="180" height="30" as="geometry" />
        </mxCell>
        <mxCell id="dmgDD_BHBkMEmIld9EDz-28" value="birthday DATE" style="text;strokeColor=default;fillColor=#FFFFFF;align=left;verticalAlign=middle;spacingLeft=4;spacingRight=4;overflow=hidden;points=[[0,0.5],[1,0.5]];portConstraint=eastwest;rotatable=0;whiteSpace=wrap;html=1;fontFamily=Times New Roman;labelBackgroundColor=#FFFFFF;strokeWidth=1;" parent="dmgDD_BHBkMEmIld9EDz-24" vertex="1">
          <mxGeometry y="150" width="180" height="30" as="geometry" />
        </mxCell>
        <mxCell id="dmgDD_BHBkMEmIld9EDz-29" value="reader_gender CHAR(1)" style="text;strokeColor=default;fillColor=#FFFFFF;align=left;verticalAlign=middle;spacingLeft=4;spacingRight=4;overflow=hidden;points=[[0,0.5],[1,0.5]];portConstraint=eastwest;rotatable=0;whiteSpace=wrap;html=1;fontFamily=Times New Roman;labelBackgroundColor=#FFFFFF;strokeWidth=1;" parent="dmgDD_BHBkMEmIld9EDz-24" vertex="1">
          <mxGeometry y="180" width="180" height="30" as="geometry" />
        </mxCell>
        <mxCell id="dmgDD_BHBkMEmIld9EDz-31" value="reviews" style="swimlane;fontStyle=0;childLayout=stackLayout;horizontal=1;startSize=30;horizontalStack=0;resizeParent=1;resizeParentMax=0;resizeLast=0;collapsible=1;marginBottom=0;whiteSpace=wrap;html=1;fontFamily=Times New Roman;fillColor=#f5f5f5;fontColor=#333333;strokeColor=#464646;strokeWidth=1;" parent="1" vertex="1">
          <mxGeometry x="795" y="460" width="180" height="180" as="geometry" />
        </mxCell>
        <mxCell id="dmgDD_BHBkMEmIld9EDz-32" value="id INT" style="text;strokeColor=default;fillColor=#FFFFFF;align=left;verticalAlign=middle;spacingLeft=4;spacingRight=4;overflow=hidden;points=[[0,0.5],[1,0.5]];portConstraint=eastwest;rotatable=0;whiteSpace=wrap;html=1;fontFamily=Times New Roman;labelBackgroundColor=#FFFFFF;strokeWidth=1;" parent="dmgDD_BHBkMEmIld9EDz-31" vertex="1">
          <mxGeometry y="30" width="180" height="30" as="geometry" />
        </mxCell>
        <mxCell id="dmgDD_BHBkMEmIld9EDz-33" value="reader_id INT" style="text;strokeColor=default;fillColor=#FFFFFF;align=left;verticalAlign=middle;spacingLeft=4;spacingRight=4;overflow=hidden;points=[[0,0.5],[1,0.5]];portConstraint=eastwest;rotatable=0;whiteSpace=wrap;html=1;fontFamily=Times New Roman;labelBackgroundColor=#FFFFFF;strokeWidth=1;" parent="dmgDD_BHBkMEmIld9EDz-31" vertex="1">
          <mxGeometry y="60" width="180" height="30" as="geometry" />
        </mxCell>
        <mxCell id="dmgDD_BHBkMEmIld9EDz-34" value="book_id INT" style="text;strokeColor=default;fillColor=#FFFFFF;align=left;verticalAlign=middle;spacingLeft=4;spacingRight=4;overflow=hidden;points=[[0,0.5],[1,0.5]];portConstraint=eastwest;rotatable=0;whiteSpace=wrap;html=1;fontFamily=Times New Roman;labelBackgroundColor=#FFFFFF;strokeWidth=1;" parent="dmgDD_BHBkMEmIld9EDz-31" vertex="1">
          <mxGeometry y="90" width="180" height="30" as="geometry" />
        </mxCell>
        <mxCell id="dmgDD_BHBkMEmIld9EDz-35" value="rating INT" style="text;strokeColor=default;fillColor=#FFFFFF;align=left;verticalAlign=middle;spacingLeft=4;spacingRight=4;overflow=hidden;points=[[0,0.5],[1,0.5]];portConstraint=eastwest;rotatable=0;whiteSpace=wrap;html=1;fontFamily=Times New Roman;labelBackgroundColor=#FFFFFF;strokeWidth=1;" parent="dmgDD_BHBkMEmIld9EDz-31" vertex="1">
          <mxGeometry y="120" width="180" height="30" as="geometry" />
        </mxCell>
        <mxCell id="dmgDD_BHBkMEmIld9EDz-36" value="comment TEXT" style="text;strokeColor=default;fillColor=#FFFFFF;align=left;verticalAlign=middle;spacingLeft=4;spacingRight=4;overflow=hidden;points=[[0,0.5],[1,0.5]];portConstraint=eastwest;rotatable=0;whiteSpace=wrap;html=1;fontFamily=Times New Roman;labelBackgroundColor=#FFFFFF;strokeWidth=1;" parent="dmgDD_BHBkMEmIld9EDz-31" vertex="1">
          <mxGeometry y="150" width="180" height="30" as="geometry" />
        </mxCell>
        <mxCell id="dmgDD_BHBkMEmIld9EDz-37" value="" style="endArrow=none;html=1;rounded=0;entryX=0;entryY=0.5;entryDx=0;entryDy=0;exitX=0;exitY=0.5;exitDx=0;exitDy=0;" parent="1" source="dmgDD_BHBkMEmIld9EDz-6" target="dmgDD_BHBkMEmIld9EDz-3" edge="1">
          <mxGeometry width="50" height="50" relative="1" as="geometry">
            <mxPoint x="570" y="410" as="sourcePoint" />
            <mxPoint x="620" y="360" as="targetPoint" />
            <Array as="points">
              <mxPoint x="120" y="505" />
              <mxPoint x="120" y="355" />
            </Array>
          </mxGeometry>
        </mxCell>
        <mxCell id="dmgDD_BHBkMEmIld9EDz-38" value="&lt;span&gt;1&lt;/span&gt;" style="edgeLabel;html=1;align=center;verticalAlign=middle;resizable=0;points=[];labelBackgroundColor=none;" parent="dmgDD_BHBkMEmIld9EDz-37" connectable="0" vertex="1">
          <mxGeometry x="0.822" y="1" relative="1" as="geometry">
            <mxPoint x="8" y="-4" as="offset" />
          </mxGeometry>
        </mxCell>
        <mxCell id="dmgDD_BHBkMEmIld9EDz-40" value="(0, n)" style="edgeLabel;html=1;align=center;verticalAlign=middle;resizable=0;points=[];labelBackgroundColor=none;" parent="dmgDD_BHBkMEmIld9EDz-37" connectable="0" vertex="1">
          <mxGeometry x="-0.8938" relative="1" as="geometry">
            <mxPoint x="-1" y="-5" as="offset" />
          </mxGeometry>
        </mxCell>
        <mxCell id="dmgDD_BHBkMEmIld9EDz-41" value="" style="endArrow=none;html=1;rounded=0;exitX=0.997;exitY=0.667;exitDx=0;exitDy=0;exitPerimeter=0;entryX=0;entryY=0.5;entryDx=0;entryDy=0;" parent="1" source="5XdrCpdb1dzaPWZnTIDK-3" target="dmgDD_BHBkMEmIld9EDz-22" edge="1">
          <mxGeometry width="50" height="50" relative="1" as="geometry">
            <mxPoint x="380" y="210" as="sourcePoint" />
            <mxPoint x="480" y="490" as="targetPoint" />
            <Array as="points">
              <mxPoint x="435" y="210" />
              <mxPoint x="435" y="255" />
            </Array>
          </mxGeometry>
        </mxCell>
        <mxCell id="dmgDD_BHBkMEmIld9EDz-45" value="(0, n)" style="edgeLabel;html=1;align=center;verticalAlign=middle;resizable=0;points=[];labelBackgroundColor=none;" parent="dmgDD_BHBkMEmIld9EDz-41" connectable="0" vertex="1">
          <mxGeometry x="-0.9452" y="2" relative="1" as="geometry">
            <mxPoint x="11" y="-3" as="offset" />
          </mxGeometry>
        </mxCell>
        <mxCell id="dmgDD_BHBkMEmIld9EDz-46" value="&lt;span&gt;1&lt;/span&gt;" style="edgeLabel;html=1;align=center;verticalAlign=middle;resizable=0;points=[];labelBackgroundColor=none;" parent="dmgDD_BHBkMEmIld9EDz-41" connectable="0" vertex="1">
          <mxGeometry x="0.9373" y="2" relative="1" as="geometry">
            <mxPoint x="-9" y="-3" as="offset" />
          </mxGeometry>
        </mxCell>
        <mxCell id="dmgDD_BHBkMEmIld9EDz-42" value="" style="endArrow=none;html=1;rounded=0;exitX=1;exitY=0.5;exitDx=0;exitDy=0;entryX=0;entryY=0.5;entryDx=0;entryDy=0;" parent="1" source="5XdrCpdb1dzaPWZnTIDK-5" target="dmgDD_BHBkMEmIld9EDz-34" edge="1">
          <mxGeometry width="50" height="50" relative="1" as="geometry">
            <mxPoint x="590" y="370" as="sourcePoint" />
            <mxPoint x="640" y="320" as="targetPoint" />
            <Array as="points">
              <mxPoint x="400" y="265" />
              <mxPoint x="400" y="565" />
            </Array>
          </mxGeometry>
        </mxCell>
        <mxCell id="dmgDD_BHBkMEmIld9EDz-52" value="(0, n)" style="edgeLabel;html=1;align=center;verticalAlign=middle;resizable=0;points=[];labelBackgroundColor=none;" parent="dmgDD_BHBkMEmIld9EDz-42" connectable="0" vertex="1">
          <mxGeometry x="-0.9812" relative="1" as="geometry">
            <mxPoint x="8" y="-5" as="offset" />
          </mxGeometry>
        </mxCell>
        <mxCell id="dmgDD_BHBkMEmIld9EDz-53" value="1" style="edgeLabel;html=1;align=center;verticalAlign=middle;resizable=0;points=[];labelBackgroundColor=none;" parent="dmgDD_BHBkMEmIld9EDz-42" connectable="0" vertex="1">
          <mxGeometry x="0.967" y="1" relative="1" as="geometry">
            <mxPoint y="-4" as="offset" />
          </mxGeometry>
        </mxCell>
        <mxCell id="dmgDD_BHBkMEmIld9EDz-44" value="" style="endArrow=none;html=1;rounded=0;entryX=0;entryY=0.5;entryDx=0;entryDy=0;exitX=0;exitY=0.5;exitDx=0;exitDy=0;" parent="1" source="dmgDD_BHBkMEmIld9EDz-32" target="dmgDD_BHBkMEmIld9EDz-25" edge="1">
          <mxGeometry width="50" height="50" relative="1" as="geometry">
            <mxPoint x="590" y="370" as="sourcePoint" />
            <mxPoint x="640" y="320" as="targetPoint" />
            <Array as="points">
              <mxPoint x="760" y="505" />
              <mxPoint x="760" y="205" />
            </Array>
          </mxGeometry>
        </mxCell>
        <mxCell id="dmgDD_BHBkMEmIld9EDz-50" value="1" style="edgeLabel;html=1;align=center;verticalAlign=middle;resizable=0;points=[];labelBackgroundColor=none;" parent="dmgDD_BHBkMEmIld9EDz-44" connectable="0" vertex="1">
          <mxGeometry x="-0.9154" y="-1" relative="1" as="geometry">
            <mxPoint x="1" y="-4" as="offset" />
          </mxGeometry>
        </mxCell>
        <mxCell id="dmgDD_BHBkMEmIld9EDz-51" value="(0, n)" style="edgeLabel;html=1;align=center;verticalAlign=middle;resizable=0;points=[];labelBackgroundColor=none;" parent="dmgDD_BHBkMEmIld9EDz-44" connectable="0" vertex="1">
          <mxGeometry x="0.9328" y="-1" relative="1" as="geometry">
            <mxPoint x="-2" y="-6" as="offset" />
          </mxGeometry>
        </mxCell>
        <mxCell id="dmgDD_BHBkMEmIld9EDz-54" value="" style="endArrow=none;html=1;rounded=0;exitX=1;exitY=0.5;exitDx=0;exitDy=0;entryX=1;entryY=0.5;entryDx=0;entryDy=0;" parent="1" source="dmgDD_BHBkMEmIld9EDz-21" target="dmgDD_BHBkMEmIld9EDz-13" edge="1">
          <mxGeometry width="50" height="50" relative="1" as="geometry">
            <mxPoint x="660" y="340" as="sourcePoint" />
            <mxPoint x="710" y="290" as="targetPoint" />
            <Array as="points">
              <mxPoint x="700" y="225" />
              <mxPoint x="700" y="310" />
              <mxPoint x="700" y="395" />
            </Array>
          </mxGeometry>
        </mxCell>
        <mxCell id="dmgDD_BHBkMEmIld9EDz-56" value="1" style="edgeLabel;html=1;align=center;verticalAlign=middle;resizable=0;points=[];labelBackgroundColor=none;" parent="dmgDD_BHBkMEmIld9EDz-54" connectable="0" vertex="1">
          <mxGeometry x="-0.8455" y="1" relative="1" as="geometry">
            <mxPoint x="-2" y="-4" as="offset" />
          </mxGeometry>
        </mxCell>
        <mxCell id="dmgDD_BHBkMEmIld9EDz-55" value="(0, n)" style="text;html=1;whiteSpace=wrap;strokeColor=none;fillColor=none;align=center;verticalAlign=middle;rounded=0;" parent="1" vertex="1">
          <mxGeometry x="650" y="390" width="60" height="30" as="geometry" />
        </mxCell>
      </root>
    </mxGraphModel>
  </diagram>
</mxfile>
